<mxfile host="app.diagrams.net" agent="Mozilla/5.0 (Windows NT 10.0; Win64; x64) AppleWebKit/537.36 (KHTML, like Gecko) Chrome/136.0.0.0 Safari/537.36 Edg/136.0.0.0" version="26.2.14">
  <diagram name="SOA架构" id="hhL-lIwk6HdpzJjZ9M6Q">
    <mxGraphModel dx="1086" dy="1254" grid="0" gridSize="10" guides="1" tooltips="1" connect="1" arrows="1" fold="1" page="0" pageScale="1" pageWidth="827" pageHeight="1169" math="0" shadow="0">
      <root>
        <mxCell id="0" />
        <mxCell id="1" parent="0" />
        <mxCell id="zMrn7Rv0pji7QZdnAUEB-1" value="API网关" style="swimlane;fillColor=#ffe6cc;" vertex="1" parent="1">
          <mxGeometry x="300" y="20" width="200" height="80" as="geometry" />
        </mxCell>
        <mxCell id="zMrn7Rv0pji7QZdnAUEB-2" value="用户服务" style="swimlane;fillColor=#d5e8d4;" vertex="1" parent="1">
          <mxGeometry x="20" y="150" width="180" height="80" as="geometry" />
        </mxCell>
        <mxCell id="zMrn7Rv0pji7QZdnAUEB-3" value="商品服务" style="swimlane;fillColor=#d5e8d4;" vertex="1" parent="1">
          <mxGeometry x="220" y="150" width="180" height="80" as="geometry" />
        </mxCell>
        <mxCell id="zMrn7Rv0pji7QZdnAUEB-4" value="订单服务" style="swimlane;fillColor=#d5e8d4;" vertex="1" parent="1">
          <mxGeometry x="420" y="150" width="180" height="80" as="geometry" />
        </mxCell>
        <mxCell id="zMrn7Rv0pji7QZdnAUEB-5" value="支付服务" style="swimlane;fillColor=#d5e8d4;" vertex="1" parent="1">
          <mxGeometry x="620" y="150" width="180" height="80" as="geometry" />
        </mxCell>
        <mxCell id="zMrn7Rv0pji7QZdnAUEB-6" value="推荐服务" style="swimlane;fillColor=#d5e8d4;" vertex="1" parent="1">
          <mxGeometry x="820" y="150" width="180" height="80" as="geometry" />
        </mxCell>
        <mxCell id="zMrn7Rv0pji7QZdnAUEB-7" value="服务注册中心" style="swimlane;fillColor=#dae8fc;" vertex="1" parent="1">
          <mxGeometry x="420" y="300" width="180" height="80" as="geometry" />
        </mxCell>
        <mxCell id="zMrn7Rv0pji7QZdnAUEB-8" style="endArrow=block;strokeWidth=2;" edge="1" parent="1" source="zMrn7Rv0pji7QZdnAUEB-1" target="zMrn7Rv0pji7QZdnAUEB-2">
          <mxGeometry relative="1" as="geometry" />
        </mxCell>
        <mxCell id="zMrn7Rv0pji7QZdnAUEB-9" style="endArrow=block;strokeWidth=2;" edge="1" parent="1" source="zMrn7Rv0pji7QZdnAUEB-1" target="zMrn7Rv0pji7QZdnAUEB-3">
          <mxGeometry relative="1" as="geometry" />
        </mxCell>
        <mxCell id="zMrn7Rv0pji7QZdnAUEB-10" style="endArrow=block;strokeWidth=2;" edge="1" parent="1" source="zMrn7Rv0pji7QZdnAUEB-1" target="zMrn7Rv0pji7QZdnAUEB-4">
          <mxGeometry relative="1" as="geometry" />
        </mxCell>
        <mxCell id="zMrn7Rv0pji7QZdnAUEB-11" style="endArrow=block;strokeWidth=2;" edge="1" parent="1" source="zMrn7Rv0pji7QZdnAUEB-1" target="zMrn7Rv0pji7QZdnAUEB-5">
          <mxGeometry relative="1" as="geometry" />
        </mxCell>
        <mxCell id="zMrn7Rv0pji7QZdnAUEB-12" style="endArrow=block;strokeWidth=2;" edge="1" parent="1" source="zMrn7Rv0pji7QZdnAUEB-1" target="zMrn7Rv0pji7QZdnAUEB-6">
          <mxGeometry relative="1" as="geometry" />
        </mxCell>
        <mxCell id="zMrn7Rv0pji7QZdnAUEB-13" style="dashed=1;endArrow=open;" edge="1" parent="1" source="zMrn7Rv0pji7QZdnAUEB-2" target="zMrn7Rv0pji7QZdnAUEB-7">
          <mxGeometry relative="1" as="geometry" />
        </mxCell>
        <mxCell id="zMrn7Rv0pji7QZdnAUEB-14" style="dashed=1;endArrow=open;" edge="1" parent="1" source="zMrn7Rv0pji7QZdnAUEB-3" target="zMrn7Rv0pji7QZdnAUEB-7">
          <mxGeometry relative="1" as="geometry" />
        </mxCell>
        <mxCell id="zMrn7Rv0pji7QZdnAUEB-15" style="dashed=1;endArrow=open;" edge="1" parent="1" source="zMrn7Rv0pji7QZdnAUEB-4" target="zMrn7Rv0pji7QZdnAUEB-7">
          <mxGeometry relative="1" as="geometry" />
        </mxCell>
        <mxCell id="zMrn7Rv0pji7QZdnAUEB-16" style="dashed=1;endArrow=open;" edge="1" parent="1" source="zMrn7Rv0pji7QZdnAUEB-5" target="zMrn7Rv0pji7QZdnAUEB-7">
          <mxGeometry relative="1" as="geometry" />
        </mxCell>
        <mxCell id="zMrn7Rv0pji7QZdnAUEB-17" style="dashed=1;endArrow=open;" edge="1" parent="1" source="zMrn7Rv0pji7QZdnAUEB-6" target="zMrn7Rv0pji7QZdnAUEB-7">
          <mxGeometry relative="1" as="geometry" />
        </mxCell>
      </root>
    </mxGraphModel>
  </diagram>
</mxfile>
